/* XPM */
static char * DENTWALL_xpm[] = {
"32 32 5 1",
" 	c #9ACED1",
".	c #66849A",
"+	c #18101C",
"@	c #222537",
"#	c #465870",
" .....++@@@@@@@@ .....++@@@@@@@@",
" .....+++@@@@@@@ .....+++@@@@@@@",
" .....++@@@@@@@@ .....++@@@@@@@@",
" .....+++@@@@@@@ .....+++@@@@@@@",
" .....++@@@@@@@@ .....++@@@@@@@@",
" .....+++@@@@@@@ .....+++@@@@@@@",
" .....++@@@@@@@@ .....++@@@@@@@@",
" .....+++@@@@@@@ .....+++@@@@@@@",
" .....++@@@@@@@@ .....++@@@@@@@@",
" .....+++@@@@@@@ .....+++@@@@@@@",
" .....++@@@@@@@@ .....++@@@@@@@@",
" .....+++@@@@@@@ .....+++@@@@@@@",
" .....++@@@@@@@@ .....++@@@@@@@@",
" .....+++@@@@@@@ .....+++@@@@@@@",
" .#.#.++@@@@@@@@ #.#.#++@@@@@@@@",
" #.#.#+++@@@@@@@ .#.#.+++@@@@@@@",
".#####++@@@@@@@@.#####++@@@@@@@@",
".#####+++@@@@@@@.#####+++@@@@@@@",
".#####++@@@@@@@@.#####++@@@@@@@@",
".#####+++@@@@@@@.#####+++@@@@@@@",
".#####++@@@@@@@@.#####++@@@@@@@@",
".#####+++@@@@@@@.#####+++@@@@@@@",
".#####++@@@@@@@@.#####++@@@@@@@@",
".#####+++@@@@@@@.#####+++@@@@@@@",
".#####++@+@@@@@@.#####++@+@@@@@@",
".#####+++@+@@@@@.#####+++@+@@@@@",
".#####++@+@+@@@@.#####++@+@+@@@@",
".#####+++@+@+@@@.#####+++@+@+@@@",
".#####...........#####..........",
"################################",
"................................",
"................................"};
