/* XPM */
static char * East_Wall_xpm[] = {
"128 128 2 1",
" 	c #C8FFD1",
".	c #1DFF3D",
"                                                                                                                                ",
"                                                                                                                                ",
"                                                                                                                                ",
"                                                                                                                                ",
"                                                                                                                                ",
"                                                                                                                                ",
"                                                                                                                                ",
"                                                                                                                                ",
"                                                                                                                                ",
"                                                                                                                                ",
"                                                                                                                                ",
"                                                                                                                                ",
"                                                                                                                                ",
"                                                                                                                                ",
"                                                                                                                                ",
"                                                                                                                                ",
"                                                                                                                                ",
"                                                                                                                                ",
"                                                                                                                                ",
"                                                                                                                                ",
"                                                                                                                                ",
"                                                                                                                                ",
"                                                                                                                                ",
"                                                                                                                                ",
"                                                                                                                                ",
"                                                                                                                                ",
"                                                                                                                                ",
"                                                                                                                                ",
"                                                                                                                                ",
"                                                                                                                                ",
"                                                                                                                                ",
"                                                                                                                                ",
"                                                   ..............................                                               ",
"                                                   ..............................                                               ",
"                                                   ..............................                                               ",
"                                                   ..............................                                               ",
"                                                   ..............................                                               ",
"                                                   ..............................                                               ",
"                                                   .......                                                                      ",
"                                                   .......                                                                      ",
"                                                   .......                                                                      ",
"                                                   .......                                                                      ",
"                                                   .......                                                                      ",
"                                                   .......                                                                      ",
"                                                   .......                                                                      ",
"                                                   .......                                                                      ",
"                                                   .......                                                                      ",
"                                                   .......                                                                      ",
"                                                   .......                                                                      ",
"                                                   .......                                                                      ",
"                                                   .......                                                                      ",
"                                                   .......                                                                      ",
"                                                   .......                                                                      ",
"                                                   .......                                                                      ",
"                                                   .......                                                                      ",
"                                                   .......                                                                      ",
"                                                   .......                                                                      ",
"                                                   .......                                                                      ",
"                                                   ............................                                                 ",
"                                                   ............................                                                 ",
"                                                   ............................                                                 ",
"                                                   ............................                                                 ",
"                                                   ............................                                                 ",
"                                                   ............................                                                 ",
"                                                   .......                                                                      ",
"                                                   .......                                                                      ",
"                                                   .......                                                                      ",
"                                                   .......                                                                      ",
"                                                   .......                                                                      ",
"                                                   .......                                                                      ",
"                                                   .......                                                                      ",
"                                                   .......                                                                      ",
"                                                   .......                                                                      ",
"                                                   .......                                                                      ",
"                                                   .......                                                                      ",
"                                                   .......                                                                      ",
"                                                   .......                                                                      ",
"                                                   .......                                                                      ",
"                                                   .......                                                                      ",
"                                                   .......                                                                      ",
"                                                   .......                                                                      ",
"                                                   .......                                                                      ",
"                                                   .......                                                                      ",
"                                                   .......                                                                      ",
"                                                   .......                                                                      ",
"                                                   ...............................                                              ",
"                                                   ...............................                                              ",
"                                                   ...............................                                              ",
"                                                   ...............................                                              ",
"                                                   ...............................                                              ",
"                                                   ...............................                                              ",
"                                                                                                                                ",
"                                                                                                                                ",
"                                                                                                                                ",
"                                                                                                                                ",
"                                                                                                                                ",
"                                                                                                                                ",
"                                                                                                                                ",
"                                                                                                                                ",
"                                                                                                                                ",
"                                                                                                                                ",
"                                                                                                                                ",
"                                                                                                                                ",
"                                                                                                                                ",
"                                                                                                                                ",
"                                                                                                                                ",
"                                                                                                                                ",
"                                                                                                                                ",
"                                                                                                                                ",
"                                                                                                                                ",
"                                                                                                                                ",
"                                                                                                                                ",
"                                                                                                                                ",
"                                                                                                                                ",
"                                                                                                                                ",
"                                                                                                                                ",
"                                                                                                                                ",
"                                                                                                                                ",
"                                                                                                                                ",
"                                                                                                                                ",
"                                                                                                                                ",
"                                                                                                                                ",
"                                                                                                                                ",
"                                                                                                                                ",
"                                                                                                                                ",
"                                                                                                                                ",
"                                                                                                                                ",
"                                                                                                                                "};
