/* XPM */
static char * North_Wall_xpm[] = {
"128 128 2 1",
" 	c #CADFFF",
".	c #3587FF",
"                                                                                                                                ",
"                                                                                                                                ",
"                                                                                                                                ",
"                                                                                                                                ",
"                                                                                                                                ",
"                                                                                                                                ",
"                                                                                                                                ",
"                                                                                                                                ",
"                                                                                                                                ",
"                                                                                                                                ",
"                                                                                                                                ",
"                                                                                                                                ",
"                                                                                                                                ",
"                                                                                                                                ",
"                                                                                                                                ",
"                                                                                                                                ",
"                                                                                                                                ",
"                                                                                                                                ",
"                                                                                                                                ",
"                                                                                                                                ",
"                                                                                                                                ",
"                                                                                                                                ",
"                                                                                                                                ",
"                                                                                                                                ",
"                                                                                                                                ",
"                                                                                                                                ",
"                                                                                                                                ",
"                                                                                                                                ",
"                                                                                                                                ",
"                                                                                                                                ",
"                                                                                                                                ",
"                                                                                                                                ",
"                                        ..........                              .......                                         ",
"                                        ..........                              .......                                         ",
"                                        ...........                             .......                                         ",
"                                        ...........                             .......                                         ",
"                                        ............                            .......                                         ",
"                                        .............                           .......                                         ",
"                                        .............                           .......                                         ",
"                                        ..............                          .......                                         ",
"                                        ...............                         .......                                         ",
"                                        ....... .......                         .......                                         ",
"                                        ....... ........                        .......                                         ",
"                                        .......  .......                        .......                                         ",
"                                        .......  ........                       .......                                         ",
"                                        .......   ........                      .......                                         ",
"                                        .......    .......                      .......                                         ",
"                                        .......    ........                     .......                                         ",
"                                        .......     ........                    .......                                         ",
"                                        .......     ........                    .......                                         ",
"                                        .......      ........                   .......                                         ",
"                                        .......       .......                   .......                                         ",
"                                        .......       ........                  .......                                         ",
"                                        .......        ........                 .......                                         ",
"                                        .......         .......                 .......                                         ",
"                                        .......         ........                .......                                         ",
"                                        .......          ........               .......                                         ",
"                                        .......           .......               .......                                         ",
"                                        .......           ........              .......                                         ",
"                                        .......            .......              .......                                         ",
"                                        .......            ........             .......                                         ",
"                                        .......             ........            .......                                         ",
"                                        .......              .......            .......                                         ",
"                                        .......              ........           .......                                         ",
"                                        .......               ........          .......                                         ",
"                                        .......                .......          .......                                         ",
"                                        .......                ........         .......                                         ",
"                                        .......                 .......         .......                                         ",
"                                        .......                 ........        .......                                         ",
"                                        .......                  ........       .......                                         ",
"                                        .......                   .......       .......                                         ",
"                                        .......                   ........      .......                                         ",
"                                        .......                    ........     .......                                         ",
"                                        .......                     .......     .......                                         ",
"                                        .......                     ........    .......                                         ",
"                                        .......                      .......    .......                                         ",
"                                        .......                       .......   .......                                         ",
"                                        .......                       ........  .......                                         ",
"                                        .......                        .......  .......                                         ",
"                                        .......                        ........ .......                                         ",
"                                        .......                         ...............                                         ",
"                                        .......                          ..............                                         ",
"                                        .......                          ..............                                         ",
"                                        .......                           .............                                         ",
"                                        .......                            ............                                         ",
"                                        .......                            ............                                         ",
"                                        .......                             ...........                                         ",
"                                        .......                             ...........                                         ",
"                                        .......                              ..........                                         ",
"                                        .......                               .........                                         ",
"                                        .......                               .........                                         ",
"                                                                                                                                ",
"                                                                                                                                ",
"                                                                                                                                ",
"                                                                                                                                ",
"                                                                                                                                ",
"                                                                                                                                ",
"                                                                                                                                ",
"                                                                                                                                ",
"                                                                                                                                ",
"                                                                                                                                ",
"                                                                                                                                ",
"                                                                                                                                ",
"                                                                                                                                ",
"                                                                                                                                ",
"                                                                                                                                ",
"                                                                                                                                ",
"                                                                                                                                ",
"                                                                                                                                ",
"                                                                                                                                ",
"                                                                                                                                ",
"                                                                                                                                ",
"                                                                                                                                ",
"                                                                                                                                ",
"                                                                                                                                ",
"                                                                                                                                ",
"                                                                                                                                ",
"                                                                                                                                ",
"                                                                                                                                ",
"                                                                                                                                ",
"                                                                                                                                ",
"                                                                                                                                ",
"                                                                                                                                ",
"                                                                                                                                ",
"                                                                                                                                ",
"                                                                                                                                ",
"                                                                                                                                ",
"                                                                                                                                "};
