/* XPM */
static char * South_Wall_xpm[] = {
"128 128 2 1",
" 	c #FFCCCC",
".	c #FF2929",
"                                                                                                                                ",
"                                                                                                                                ",
"                                                                                                                                ",
"                                                                                                                                ",
"                                                                                                                                ",
"                                                                                                                                ",
"                                                                                                                                ",
"                                                                                                                                ",
"                                                                                                                                ",
"                                                                                                                                ",
"                                                                                                                                ",
"                                                                                                                                ",
"                                                                                                                                ",
"                                                                                                                                ",
"                                                                                                                                ",
"                                                                                                                                ",
"                                                                                                                                ",
"                                                                                                                                ",
"                                                                                                                                ",
"                                                                                                                                ",
"                                                                                                                                ",
"                                                                                                                                ",
"                                                                                                                                ",
"                                                                                                                                ",
"                                                                                                                                ",
"                                                                                                                                ",
"                                                                                                                                ",
"                                                                                                                                ",
"                                                                                                                                ",
"                                                                                                                                ",
"                                                                                                                                ",
"                                                      ............                                                              ",
"                                                 .....................                                                          ",
"                                                .........................                                                       ",
"                                                ...........................                                                     ",
"                                                ............................                                                    ",
"                                                .............................                                                   ",
"                                                ........          ............                                                  ",
"                                                ....                  .........                                                 ",
"                                                ..                     .........                                                ",
"                                                .                       ........                                                ",
"                                                                         ........                                               ",
"                                                                          .......                                               ",
"                                                                          .......                                               ",
"                                                                           .......                                              ",
"                                                                           .......                                              ",
"                                                                           .......                                              ",
"                                                                           .......                                              ",
"                                                                          ........                                              ",
"                                                                          ........                                              ",
"                                                                          .......                                               ",
"                                                                         ........                                               ",
"                                                                        .........                                               ",
"                                                                       .........                                                ",
"                                                                     ..........                                                 ",
"                                                                    ...........                                                 ",
"                                                                  ............                                                  ",
"                                                                .............                                                   ",
"                                                              ..............                                                    ",
"                                                            ..............                                                      ",
"                                                          ...............                                                       ",
"                                                        ...............                                                         ",
"                                                      ...............                                                           ",
"                                                     ..............                                                             ",
"                                                    .............                                                               ",
"                                                   ............                                                                 ",
"                                                  ...........                                                                   ",
"                                                 ..........                                                                     ",
"                                                ..........                                                                      ",
"                                               .........                                                                        ",
"                                               ........                                                                         ",
"                                               .......                                                                          ",
"                                              ........                                                                          ",
"                                              .......                                                                           ",
"                                              .......                                                                           ",
"                                              .......                                                                           ",
"                                              .......                                                                           ",
"                                              .......                                                                           ",
"                                              .......                                                                           ",
"                                              .......                                                                           ",
"                                              ........                                                                          ",
"                                               .......                           .                                              ",
"                                               ........                        ...                                              ",
"                                               .........                     .....                                              ",
"                                                .........                  .......                                              ",
"                                                 ............          ...........                                              ",
"                                                  ................................                                              ",
"                                                   ...............................                                              ",
"                                                    ..............................                                              ",
"                                                      ...........................                                               ",
"                                                         .....................                                                  ",
"                                                             ............                                                       ",
"                                                                                                                                ",
"                                                                                                                                ",
"                                                                                                                                ",
"                                                                                                                                ",
"                                                                                                                                ",
"                                                                                                                                ",
"                                                                                                                                ",
"                                                                                                                                ",
"                                                                                                                                ",
"                                                                                                                                ",
"                                                                                                                                ",
"                                                                                                                                ",
"                                                                                                                                ",
"                                                                                                                                ",
"                                                                                                                                ",
"                                                                                                                                ",
"                                                                                                                                ",
"                                                                                                                                ",
"                                                                                                                                ",
"                                                                                                                                ",
"                                                                                                                                ",
"                                                                                                                                ",
"                                                                                                                                ",
"                                                                                                                                ",
"                                                                                                                                ",
"                                                                                                                                ",
"                                                                                                                                ",
"                                                                                                                                ",
"                                                                                                                                ",
"                                                                                                                                ",
"                                                                                                                                ",
"                                                                                                                                ",
"                                                                                                                                ",
"                                                                                                                                ",
"                                                                                                                                ",
"                                                                                                                                "};
