/* XPM */
static char * TECHWALLB_2_xpm[] = {
"32 32 9 1",
" 	c #E6EBEC",
".	c #BEC7D2",
"+	c #306C99",
"@	c #8F9DB0",
"#	c #273973",
"$	c #15304F",
"%	c #142F4E",
"&	c #2CF1EF",
"*	c #18101C",
"            .+.                 ",
".............+..................",
"@@@@@+#@@@@@.+#@@@@@@@@@.+#@@@@@",
"@@@@@+#@@@@@.+#$@+@@@@@@.+#@@@@@",
"@@@@@+#@@@@@.+#+@@@@@@@@.+#@@@@@",
"@@@@@+#@@@@@.+#@@@@@@@@@.+#@@@@@",
"++++++#@@@@@.+#@@@@@@@@@.+++++++",
"#####+#@@@@@.+#@@@@@@@@@.#######",
"@@@@.+#@@@@@.+#@@@@@@@@@@@@@@@@@",
"@@@@.+#@@@@@.+#@@@+++++++++++++@",
"@@@@.+++++++.+#@@@+%&&+&&%&+&%@@",
"@@@@.+######.+#@@@+%&&%&&%+%+%@@",
".@@@.+#@@@@@.+#@@.              ",
"+@@@.+#@@@@@.+#@.+++++++++++++++",
"+@@@.+#@@@@@.+#.+***************",
"+@@@.+#@@@@@.+.+****************",
"+.         ..++***++++++++++++++",
"++++++++++++++***++####+######.+",
"****************+.+#@@.+#@@@@@.+",
"***************+#.+#@@.+#@@@@@.+",
"+++++++++++++++#@.+#@@.+#@@@@@.+",
"######+########@@.+#@@.+#@@@@@.#",
"@@@@@.+#@@@@@@@@@.++++++++@@@@@@",
"@@@@@.+#@@@@@@@@@.+*******+@@@@@",
"@@@@@.+#@@@@@@@@@.+*%%%*%*++@@@@",
"@@@@@.+#@@@@@@@@@.+*******+#+@@@",
"+++++++++++++++++.+*$&*$**+@#+++",
"##+##############.+*******+@@###",
"@.+#@@@@@@&@&@&@@.+*&&*&$*+@@@@@",
"@.+#@@@@@@@@@@@@@.+*******+@@@@@",
"@.+#@@@@@@@@@@@@@.+*******+@@@@@",
"++++++++++++++++++++++++++++++++"};
