/* XPM */
static char * Tile_Wall_Side_Left_xpm[] = {
"128 128 4 1",
" 	c #7B7765",
".	c #5C554C",
"+	c #443F39",
"@	c #38342F",
"                                                        ................................................++++++++........@@@@@@@@",
"                                                        ................................................++++++++........@@@@@@@@",
"                                                        ................................................++++++++........@@@@@@@@",
"                                                        ................................................++++++++........@@@@@@@@",
"                                                        ................................................++++++++........@@@@@@@@",
"                                                        ................................................++++++++........@@@@@@@@",
"                                                        ................................................++++++++........@@@@@@@@",
"                                                        ................................................++++++++........@@@@@@@@",
"                                        ........................................++++++++++++++++++++++++++++++++........@@@@@@@@",
"                                        ........................................++++++++++++++++++++++++++++++++........@@@@@@@@",
"                                        ........................................++++++++++++++++++++++++++++++++........@@@@@@@@",
"                                        ........................................++++++++++++++++++++++++++++++++........@@@@@@@@",
"                                        ........................................++++++++++++++++++++++++++++++++........@@@@@@@@",
"                                        ........................................++++++++++++++++++++++++++++++++........@@@@@@@@",
"                                        ........................................++++++++++++++++++++++++++++++++........@@@@@@@@",
"                                        ........................................++++++++++++++++++++++++++++++++........@@@@@@@@",
"................................++++++++++++++++++++++++++++++++++++++++++++++++........................................@@@@@@@@",
"................................++++++++++++++++++++++++++++++++++++++++++++++++........................................@@@@@@@@",
"................................++++++++++++++++++++++++++++++++++++++++++++++++........................................@@@@@@@@",
"................................++++++++++++++++++++++++++++++++++++++++++++++++........................................@@@@@@@@",
"................................++++++++++++++++++++++++++++++++++++++++++++++++........................................@@@@@@@@",
"................................++++++++++++++++++++++++++++++++++++++++++++++++........................................@@@@@@@@",
"................................++++++++++++++++++++++++++++++++++++++++++++++++........................................@@@@@@@@",
"................................++++++++++++++++++++++++++++++++++++++++++++++++........................................@@@@@@@@",
"++++++++++++++++++++++++++++++++........................                                                ................@@@@@@@@",
"++++++++++++++++++++++++++++++++........................                                                ................@@@@@@@@",
"++++++++++++++++++++++++++++++++........................                                                ................@@@@@@@@",
"++++++++++++++++++++++++++++++++........................                                                ................@@@@@@@@",
"++++++++++++++++++++++++++++++++........................                                                ................@@@@@@@@",
"++++++++++++++++++++++++++++++++........................                                                ................@@@@@@@@",
"++++++++++++++++++++++++++++++++........................                                                ................@@@@@@@@",
"++++++++++++++++++++++++++++++++........................                                                ................@@@@@@@@",
"                                                                                                ........................@@@@@@@@",
"                                                                                                ........................@@@@@@@@",
"                                                                                                ........................@@@@@@@@",
"                                                                                                ........................@@@@@@@@",
"                                                                                                ........................@@@@@@@@",
"                                                                                                ........................@@@@@@@@",
"                                                                                                ........................@@@@@@@@",
"                                                                                                ........................@@@@@@@@",
"                                                                        ................................................@@@@@@@@",
"                                                                        ................................................@@@@@@@@",
"                                                                        ................................................@@@@@@@@",
"                                                                        ................................................@@@@@@@@",
"                                                                        ................................................@@@@@@@@",
"                                                                        ................................................@@@@@@@@",
"                                                                        ................................................@@@@@@@@",
"                                                                        ................................................@@@@@@@@",
"                        ........................................................                                ++++++++@@@@@@@@",
"                        ........................................................                                ++++++++@@@@@@@@",
"                        ........................................................                                ++++++++@@@@@@@@",
"                        ........................................................                                ++++++++@@@@@@@@",
"                        ........................................................                                ++++++++@@@@@@@@",
"                        ........................................................                                ++++++++@@@@@@@@",
"                        ........................................................                                ++++++++@@@@@@@@",
"                        ........................................................                                ++++++++@@@@@@@@",
"                                                                                                ........................@@@@@@@@",
"                                                                                                ........................@@@@@@@@",
"                                                                                                ........................@@@@@@@@",
"                                                                                                ........................@@@@@@@@",
"                                                                                                ........................@@@@@@@@",
"                                                                                                ........................@@@@@@@@",
"                                                                                                ........................@@@@@@@@",
"                                                                                                ........................@@@@@@@@",
"                                                                                ........................++++++++........@@@@@@@@",
"                                                                                ........................++++++++........@@@@@@@@",
"                                                                                ........................++++++++........@@@@@@@@",
"                                                                                ........................++++++++........@@@@@@@@",
"                                                                                ........................++++++++........@@@@@@@@",
"                                                                                ........................++++++++........@@@@@@@@",
"                                                                                ........................++++++++........@@@@@@@@",
"                                                                                ........................++++++++........@@@@@@@@",
"                                ................................................++++++++++++++++++++++++++++++++........@@@@@@@@",
"                                ................................................++++++++++++++++++++++++++++++++........@@@@@@@@",
"                                ................................................++++++++++++++++++++++++++++++++........@@@@@@@@",
"                                ................................................++++++++++++++++++++++++++++++++........@@@@@@@@",
"                                ................................................++++++++++++++++++++++++++++++++........@@@@@@@@",
"                                ................................................++++++++++++++++++++++++++++++++........@@@@@@@@",
"                                ................................................++++++++++++++++++++++++++++++++........@@@@@@@@",
"                                ................................................++++++++++++++++++++++++++++++++........@@@@@@@@",
"........................................................++++++++++++++++++++++++........................................@@@@@@@@",
"........................................................++++++++++++++++++++++++........................................@@@@@@@@",
"........................................................++++++++++++++++++++++++........................................@@@@@@@@",
"........................................................++++++++++++++++++++++++........................................@@@@@@@@",
"........................................................++++++++++++++++++++++++........................................@@@@@@@@",
"........................................................++++++++++++++++++++++++........................................@@@@@@@@",
"........................................................++++++++++++++++++++++++........................................@@@@@@@@",
"........................................................++++++++++++++++++++++++........................................@@@@@@@@",
"                                                        ................................        ++++++++................@@@@@@@@",
"                                                        ................................        ++++++++................@@@@@@@@",
"                                                        ................................        ++++++++................@@@@@@@@",
"                                                        ................................        ++++++++................@@@@@@@@",
"                                                        ................................        ++++++++................@@@@@@@@",
"                                                        ................................        ++++++++................@@@@@@@@",
"                                                        ................................        ++++++++................@@@@@@@@",
"                                                        ................................        ++++++++................@@@@@@@@",
"                                                                                ++++++++++++++++........................@@@@@@@@",
"                                                                                ++++++++++++++++........................@@@@@@@@",
"                                                                                ++++++++++++++++........................@@@@@@@@",
"                                                                                ++++++++++++++++........................@@@@@@@@",
"                                                                                ++++++++++++++++........................@@@@@@@@",
"                                                                                ++++++++++++++++........................@@@@@@@@",
"                                                                                ++++++++++++++++........................@@@@@@@@",
"                                                                                ++++++++++++++++........................@@@@@@@@",
"                                                                ++++++++++++++++........................................@@@@@@@@",
"                                                                ++++++++++++++++........................................@@@@@@@@",
"                                                                ++++++++++++++++........................................@@@@@@@@",
"                                                                ++++++++++++++++........................................@@@@@@@@",
"                                                                ++++++++++++++++........................................@@@@@@@@",
"                                                                ++++++++++++++++........................................@@@@@@@@",
"                                                                ++++++++++++++++........................................@@@@@@@@",
"                                                                ++++++++++++++++........................................@@@@@@@@",
"                                                        ++++++++........................................................@@@@@@@@",
"                                                        ++++++++........................................................@@@@@@@@",
"                                                        ++++++++........................................................@@@@@@@@",
"                                                        ++++++++........................................................@@@@@@@@",
"                                                        ++++++++........................................................@@@@@@@@",
"                                                        ++++++++........................................................@@@@@@@@",
"                                                        ++++++++........................................................@@@@@@@@",
"                                                        ++++++++........................................................@@@@@@@@",
"++++++++++++++++++++++++++++++++++++++++++++++++++++++++........................................................++++++++@@@@@@@@",
"++++++++++++++++++++++++++++++++++++++++++++++++++++++++........................................................++++++++@@@@@@@@",
"++++++++++++++++++++++++++++++++++++++++++++++++++++++++........................................................++++++++@@@@@@@@",
"++++++++++++++++++++++++++++++++++++++++++++++++++++++++........................................................++++++++@@@@@@@@",
"++++++++++++++++++++++++++++++++++++++++++++++++++++++++........................................................++++++++@@@@@@@@",
"++++++++++++++++++++++++++++++++++++++++++++++++++++++++........................................................++++++++@@@@@@@@",
"++++++++++++++++++++++++++++++++++++++++++++++++++++++++........................................................++++++++@@@@@@@@",
"++++++++++++++++++++++++++++++++++++++++++++++++++++++++........................................................++++++++@@@@@@@@"};
