/* XPM */
static char * West_Wall_xpm[] = {
"128 128 2 1",
" 	c #FFFFC1",
".	c #D3DA00",
"                                                                                                                                ",
"                                                                                                                                ",
"                                                                                                                                ",
"                                                                                                                                ",
"                                                                                                                                ",
"                                                                                                                                ",
"                                                                                                                                ",
"                                                                                                                                ",
"                                                                                                                                ",
"                                                                                                                                ",
"                                                                                                                                ",
"                                                                                                                                ",
"                                                                                                                                ",
"                                                                                                                                ",
"                                                                                                                                ",
"                                                                                                                                ",
"                                                                                                                                ",
"                                                                                                                                ",
"                                                                                                                                ",
"                                                                                                                                ",
"                                                                                                                                ",
"                                                                                                                                ",
"                                                                                                                                ",
"                                                                                                                                ",
"                                                                                                                                ",
"                                                                                                                                ",
"                                                                                                                                ",
"                                                                                                                                ",
"                                                                                                                                ",
"                                                                                                                                ",
"                                                                                                                                ",
"                                                                                                                                ",
"                          .......                            .......                          ........                          ",
"                          ........                           .......                          .......                           ",
"                          ........                          ........                          .......                           ",
"                           .......                          .........                        ........                           ",
"                           ........                         .........                        ........                           ",
"                           ........                         .........                        .......                            ",
"                            .......                        ..........                        .......                            ",
"                            .......                        ...........                      ........                            ",
"                            ........                       ...........                      .......                             ",
"                             .......                      ............                      .......                             ",
"                             .......                      .............                     .......                             ",
"                             .......                      .............                    ........                             ",
"                             ........                     .............                    .......                              ",
"                              .......                    ....... ......                    .......                              ",
"                              .......                    ......  .......                  ........                              ",
"                              ........                   ......  .......                  .......                               ",
"                               .......                  .......  .......                  .......                               ",
"                               .......                  .......   ......                  .......                               ",
"                               .......                  ......    .......                ........                               ",
"                               ........                 ......    .......                .......                                ",
"                                .......                .......    .......                .......                                ",
"                                .......                ......      .......               .......                                ",
"                                .......                ......      .......              .......                                 ",
"                                 .......              .......      .......              .......                                 ",
"                                 .......              .......       ......              .......                                 ",
"                                 .......              ......        .......             .......                                 ",
"                                 ........             ......        .......            .......                                  ",
"                                  .......            .......        .......            .......                                  ",
"                                  .......            ......          ......            .......                                  ",
"                                  .......            ......          .......           .......                                  ",
"                                   .......          .......          .......          .......                                   ",
"                                   .......          .......          .......          .......                                   ",
"                                   .......          ......            .......         .......                                   ",
"                                   ........         ......            .......        .......                                    ",
"                                    .......        .......            .......        .......                                    ",
"                                    .......        ......              ......        .......                                    ",
"                                    .......        ......              .......       .......                                    ",
"                                     .......      .......              .......      .......                                     ",
"                                     .......      .......              .......      .......                                     ",
"                                     .......      ......                ......      .......                                     ",
"                                      ......      ......                .......     ......                                      ",
"                                      .......    .......                .......    .......                                      ",
"                                      .......    .......                 ......    .......                                      ",
"                                      .......    ......                  .......   .......                                      ",
"                                       .......  .......                  .......   ......                                       ",
"                                       .......  .......                  .......  .......                                       ",
"                                       .......  ......                    ......  .......                                       ",
"                                        ......  ......                    ....... ......                                        ",
"                                        ...... .......                    ....... ......                                        ",
"                                        ..............                     .............                                        ",
"                                        .............                      .............                                        ",
"                                         ............                      ............                                         ",
"                                         ............                      ............                                         ",
"                                         ...........                        ...........                                         ",
"                                          ..........                        ...........                                         ",
"                                          ..........                        ..........                                          ",
"                                          ..........                        ..........                                          ",
"                                          .........                          .........                                          ",
"                                           ........                          ........                                           ",
"                                                                                                                                ",
"                                                                                                                                ",
"                                                                                                                                ",
"                                                                                                                                ",
"                                                                                                                                ",
"                                                                                                                                ",
"                                                                                                                                ",
"                                                                                                                                ",
"                                                                                                                                ",
"                                                                                                                                ",
"                                                                                                                                ",
"                                                                                                                                ",
"                                                                                                                                ",
"                                                                                                                                ",
"                                                                                                                                ",
"                                                                                                                                ",
"                                                                                                                                ",
"                                                                                                                                ",
"                                                                                                                                ",
"                                                                                                                                ",
"                                                                                                                                ",
"                                                                                                                                ",
"                                                                                                                                ",
"                                                                                                                                ",
"                                                                                                                                ",
"                                                                                                                                ",
"                                                                                                                                ",
"                                                                                                                                ",
"                                                                                                                                ",
"                                                                                                                                ",
"                                                                                                                                ",
"                                                                                                                                ",
"                                                                                                                                ",
"                                                                                                                                ",
"                                                                                                                                ",
"                                                                                                                                ",
"                                                                                                                                "};
